# xmcd
#
# Track frame offsets: 
#        150
#        19766
#        40449
#        56531
#        69730
#        88409
#        106013
#        119364
#        133197
#        151416
#        161440
#        182800
#        200871
#        217809
#        237563
#
# Disc length: 3384 seconds
#
# Revision: 0
# Processed by: cddbd v1.5.2PL0 Copyright (c) Steve Scherf et al.
# Submitted via: ExactAudioCopy v0.99pb5
#
DISCID=db0d360f
DTITLE=Eugene Hideaway Bridges - Hold on
DYEAR=2015
DGENRE=Blues
TTITLE0=One more time
TTITLE1=Hold on a little bit longer
TTITLE2=Special lady
TTITLE3=Love you in every way
TTITLE4=End of time
TTITLE5=V8 Ford
TTITLE6=Yesteryear today tomorrow
TTITLE7=I can't stand it
TTITLE8=Definition of me
TTITLE9=Lost and lookin'
TTITLE10=Change your name
TTITLE11=Long way from San Antone
TTITLE12=Along the navajo trail
TTITLE13=Take me back to Perth
TTITLE14=Thirst for air
EXTD=
EXTT0=
EXTT1=
EXTT2=
EXTT3=
EXTT4=
EXTT5=
EXTT6=
EXTT7=
EXTT8=
EXTT9=
EXTT10=
EXTT11=
EXTT12=
EXTT13=
EXTT14=
PLAYORDER=
